<svg width="27" height="36" viewBox="0 0 27 36" fill="none" xmlns="http://www.w3.org/2000/svg">
<path d="M14.5 25C12.1947 25 9.93433 24.3625 7.96876 23.158C6.00319 21.9535 4.40898 20.2289 3.36241 18.1749C2.31584 16.1209 1.85766 13.8174 2.03853 11.5193C2.2194 9.22109 3.03227 7.0177 4.38728 5.15269C5.74229 3.28768 7.58665 1.8337 9.71645 0.951511C11.8463 0.0693187 14.1785 -0.206724 16.4554 0.153901C18.7323 0.514526 20.8651 1.49777 22.6181 2.99493C24.371 4.49209 25.6758 6.44484 26.3882 8.63729L20.4441 10.5686C20.0879 9.47242 19.4355 8.49605 18.559 7.74747C17.6826 6.99889 16.6162 6.50727 15.4777 6.32695C14.3393 6.14664 13.1731 6.28466 12.1082 6.72576C11.0433 7.16685 10.1211 7.89384 9.44364 8.82635C8.76613 9.75885 8.35969 10.8605 8.26926 12.0096C8.17882 13.1587 8.40791 14.3104 8.9312 15.3374C9.45449 16.3645 10.2516 17.2268 11.2344 17.829C12.2172 18.4313 13.3474 18.75 14.5 18.75V25Z" fill="#007AFF"/>
<path d="M12.5 11C14.8053 11 17.0656 11.6375 19.0312 12.842C20.9968 14.0465 22.591 15.7711 23.6376 17.8251C24.6841 19.8791 25.1423 22.1826 24.9615 24.4807C24.7806 26.7789 23.9677 28.9823 22.6127 30.8473C21.2577 32.7123 19.4133 34.1663 17.2835 35.0485C15.1537 35.9307 12.8215 36.2067 10.5446 35.8461C8.26766 35.4855 6.13484 34.5022 4.38189 33.0051C2.62894 31.5079 1.32416 29.5552 0.611786 27.3627L6.55589 25.4314C6.91207 26.5276 7.56447 27.504 8.44094 28.2525C9.31742 29.0011 10.3838 29.4927 11.5223 29.6731C12.6607 29.8534 13.8269 29.7153 14.8918 29.2743C15.9567 28.8332 16.8788 28.1062 17.5563 27.1737C18.2339 26.2412 18.6403 25.1395 18.7307 23.9904C18.8212 22.8413 18.5921 21.6896 18.0688 20.6626C17.5455 19.6356 16.7484 18.7733 15.7656 18.171C14.7828 17.5688 13.6526 17.25 12.5 17.25V11Z" fill="#007AFF"/>
</svg>
